<svg width="129" height="43" viewBox="0 0 129 53" fill="none" xmlns="http://www.w3.org/2000/svg">
<path fill-rule="evenodd" clip-rule="evenodd" d="M61.1054 32.5592C61.5479 30.5832 61.7814 28.5283 61.7814 26.419C61.7814 24.3035 61.5466 22.2429 61.1016 20.2616C58.5165 21.0929 56.9224 23.4041 56.9224 26.4238C56.9224 29.4226 58.5181 31.7299 61.1054 32.5592ZM63.0068 36.7014L63.0685 36.7029C63.1568 36.7049 63.2455 36.7059 63.3346 36.7059C66.9785 36.7059 70.1705 34.8698 71.8371 32.045L68.4756 30.096C67.6228 31.6724 65.9189 32.7051 63.9045 32.8694C64.4159 30.8034 64.6872 28.643 64.6872 26.4191C64.6872 24.1884 64.4142 22.0214 63.8997 19.9496C65.912 20.113 67.5963 21.1483 68.4756 22.7516L71.8371 20.8025C70.1422 17.9778 66.9502 16.1417 63.3346 16.1417C63.1039 16.1417 62.8757 16.1484 62.6502 16.1615C59.3754 8.27913 52.4399 2.29718 43.9626 0.332031C51.3688 3.22844 57.2407 9.18102 60.0235 16.6367C55.8259 17.9551 53.0525 21.7698 53.0525 26.4238C53.0525 31.0543 55.8249 34.8822 60.0212 36.2075C57.2371 43.661 51.3655 49.6115 43.9603 52.5068C52.4355 50.5429 59.3698 44.5644 62.6464 36.6858C62.7658 36.6928 62.886 36.6981 63.0068 36.7014ZM104.485 16.5371V28.5989L96.011 16.5371H93.0626V16.5349L90.5913 16.5314L93.045 18.4867V36.3104H96.9432V24.2205L105.417 36.3104H108.383V16.5371H104.485ZM16.5438 20.2659V16.5371H2.47127V16.5349L0 16.5314L2.16332 18.2552V36.3104H6.06146V28.6836H13.7448V24.9549H6.06146V20.2659H16.5438ZM28.6675 36.3104H32.9046L25.9557 16.5371H21.1254L21.1155 16.5652V16.5349L18.6443 16.5314L20.5859 18.0785L14.2047 36.3104H18.4136L19.6 32.7512H27.4811L28.6675 36.3104ZM20.8429 29.1073L23.5547 21.0285L26.2663 29.1073L26.9552 30.9275L24.777 29.1073H20.8429ZM52.4696 36.3104H47.6728L43.6899 29.4463H38.7227V36.3104H34.8246V18.4817L32.3771 16.5314L34.8484 16.5349V16.5371H44.7351C48.379 16.5371 51.3168 19.4749 51.3168 23.0906C51.3168 25.5764 49.7632 27.8079 47.5034 28.8531L52.4696 36.3104ZM44.7351 20.1811H38.7227V26.0283H44.7351C46.204 26.0283 47.4186 24.729 47.4186 23.0906C47.4186 21.4522 46.204 20.1811 44.7351 20.1811ZM91.0773 36.3104H86.8401L85.6537 32.7512H77.7727L76.5863 36.3104H72.3774L78.7662 18.0568L76.8519 16.5314L79.3232 16.5349V16.5371H84.1284L91.0773 36.3104ZM81.7274 21.0285L79.0155 29.1073H82.9497L85.1279 30.9275L84.439 29.1073L81.7274 21.0285ZM124.763 36.3104H129L122.051 16.5371H117.254V16.5349L114.783 16.5314L116.691 18.0518L110.3 36.3104H114.509L115.695 32.7512H123.576L124.763 36.3104ZM116.938 29.1073L119.65 21.0285L122.362 29.1073L123.051 30.9275L120.872 29.1073H116.938Z" fill="#F6F6F6"/>
</svg>
